<svg preserveAspectRatio="none" width="100%" height="100%" overflow="visible" style="display: block;" viewBox="0 0 20 20" fill="none" xmlns="http://www.w3.org/2000/svg">
<g id="Vector">
<g id="Vector_2">
</g>
<path id="Vector_3" d="M9.19624 4.1766C9.06442 3.77628 8.66121 3.52059 8.23975 3.52059C7.81829 3.52059 7.41507 3.77628 7.28326 4.1766C6.0714 7.85728 4.33671 9.59195 0.656011 10.8038C0.267331 10.9668 0 11.3388 0 11.7603C0 12.1817 0.267331 12.5538 0.656011 12.7168C4.33671 13.9286 6.16441 15.6633 7.28326 19.3857C7.42667 19.8305 7.81829 20 8.23975 20C8.66121 20 9.03326 19.7327 9.19624 19.3857C10.4081 15.6633 12.1428 13.9286 15.8235 12.7168C16.2238 12.585 16.4795 12.1817 16.4795 11.7603C16.4795 11.3388 16.2238 10.9356 15.8235 10.8038C12.1428 9.59195 10.4081 7.85728 9.19624 4.1766Z" fill="var(--fill-0, #00A1FF)"/>
<g id="Vector_4">
</g>
<path id="Vector_5" d="M16.8877 0.28033C16.8334 0.109261 16.659 0 16.4789 0C16.2988 0 16.1244 0.109261 16.0701 0.28033C15.5524 1.85319 14.8111 2.59446 13.2382 3.11222C13.0721 3.18197 12.9581 3.34095 12.9581 3.52106C12.9581 3.70116 13.0721 3.86014 13.2382 3.92989C14.8111 4.44765 15.5921 5.18892 16.0701 6.76178C16.1225 6.93285 16.2988 7.04179 16.4789 7.04179C16.659 7.04179 16.818 6.92787 16.8877 6.76178C17.4054 5.18892 18.1467 4.44765 19.7196 3.92989C19.8906 3.87564 20 3.70116 20 3.52106C20 3.34095 19.8906 3.16647 19.7196 3.11222C18.1467 2.59446 17.4054 1.85319 16.8877 0.28033Z" fill="var(--fill-0, #00A1FF)"/>
</g>
</svg>
