<svg preserveAspectRatio="none" width="100%" height="100%" overflow="visible" style="display: block;" viewBox="0 0 32 32" fill="none" xmlns="http://www.w3.org/2000/svg">
<g id="camera_32">
<path id="-" fill-rule="evenodd" clip-rule="evenodd" d="M5.16666 7.62667H9.78735L11.2562 4.80701C11.5145 4.31106 12.0273 4 12.5865 4H19.284C19.8348 4 20.3412 4.30186 20.6033 4.7863L22.1398 7.62667H26.8333C28.214 7.62667 29.3333 8.74595 29.3333 10.1267V24.2558C29.3333 25.6365 28.214 26.7558 26.8333 26.7558H5.16666C3.78594 26.7558 2.66666 25.6365 2.66666 24.2558V10.1267C2.66666 8.74595 3.78594 7.62667 5.16666 7.62667ZM19.7766 16.8012C19.7766 18.907 18.0695 20.6141 15.9637 20.6141C13.8579 20.6141 12.1508 18.907 12.1508 16.8012C12.1508 14.6954 13.8579 12.9883 15.9637 12.9883C18.0695 12.9883 19.7766 14.6954 19.7766 16.8012ZM21.7766 16.8012C21.7766 20.0116 19.1741 22.6141 15.9637 22.6141C12.7533 22.6141 10.1508 20.0116 10.1508 16.8012C10.1508 13.5908 12.7533 10.9883 15.9637 10.9883C19.1741 10.9883 21.7766 13.5908 21.7766 16.8012Z" fill="var(--fill-0, #2F3438)"/>
</g>
</svg>
