<svg preserveAspectRatio="none" width="100%" height="100%" overflow="visible" style="display: block;" viewBox="0 0 18.1 19.1" fill="none" xmlns="http://www.w3.org/2000/svg">
<path id="Vector" fill-rule="evenodd" clip-rule="evenodd" d="M7.41265 0.476567C8.41165 -0.158856 9.68835 -0.158856 10.6874 0.476567L16.6874 4.29302L16.7283 4.31954C17.5836 4.88292 18.1 5.8391 18.1 6.86539V11.5563L18.099 11.8063V11.8079L18.0989 11.8095C18.0778 14.4078 17.7343 16.349 16.4557 17.575C15.3172 18.6665 13.605 19.0266 11.35 19.0893V19.1H7.55C4.85579 19.1 2.85138 18.7828 1.58447 17.5165C0.337254 16.2699 0.0101626 14.3087 0.000244141 11.6789L0 11.5531V6.86539C2.53987e-05 5.82282 0.532922 4.8526 1.41265 4.29302L7.41265 0.476567ZM10.7033 7.85C10.489 7.85 10.3073 8.00461 10.2597 8.21363C9.87743 9.89486 8.99621 10.7752 7.31328 11.157C7.10447 11.2044 6.95002 11.3858 6.95 11.6C6.95001 11.8141 7.10447 11.9955 7.31328 12.0429C8.9962 12.4248 9.87742 13.3051 10.2597 14.9864C10.3072 15.1954 10.489 15.35 10.7033 15.35C10.9177 15.35 11.0993 15.1954 11.1469 14.9864C11.5286 13.3077 12.4077 12.4275 14.0856 12.0447C14.2951 11.9969 14.45 11.8148 14.45 11.6C14.45 11.3851 14.2951 11.203 14.0856 11.1552C12.4077 10.7724 11.5286 9.8923 11.1469 8.21363C11.0993 8.00462 10.9177 7.85001 10.7033 7.85ZM6.17666 5.6C6.0695 5.6 5.97867 5.67731 5.95488 5.78179C5.76374 6.62241 5.3231 7.06256 4.48164 7.25347C4.37725 7.27716 4.30003 7.36792 4.3 7.47496C4.3 7.58201 4.37724 7.67275 4.48164 7.69644C5.3231 7.88736 5.76373 8.3276 5.95488 9.16822C5.97866 9.27272 6.06949 9.35 6.17666 9.35C6.28383 9.35 6.37467 9.27272 6.39844 9.16822C6.58929 8.32889 7.02887 7.88875 7.86782 7.69737C7.97255 7.67347 8.05 7.58238 8.05 7.47496C8.04997 7.36755 7.97254 7.27648 7.86782 7.25259C7.02886 7.06121 6.58929 6.62113 6.39844 5.78179C6.37465 5.6773 6.28382 5.60001 6.17666 5.6Z" fill="var(--fill-0, black)"/>
</svg>
